<svg xmlns="http://www.w3.org/2000/svg" width="1240" height="900" viewBox="0 0 1240 900" font-family="Helvetica, Arial, sans-serif">
  <defs>
    <marker id="arr" markerWidth="10" markerHeight="10" refX="8" refY="3" orient="auto" markerUnits="strokeWidth">
      <path d="M0,0 L8,3 L0,6 Z" fill="#444"/>
    </marker>
    <marker id="arrp" markerWidth="10" markerHeight="10" refX="8" refY="3" orient="auto" markerUnits="strokeWidth">
      <path d="M0,0 L8,3 L0,6 Z" fill="#8957e5"/>
    </marker>
  </defs>

  <rect x="0" y="0" width="1240" height="900" fill="#ffffff"/>
  <text x="620" y="38" text-anchor="middle" font-size="24" font-weight="bold" fill="#111">SAE4D01 — Architecture complète du lab datacenter</text>

  <!-- ACCES -->
  <rect x="40" y="60" width="360" height="90" rx="10" fill="#eef2f7" stroke="#9aa7b4" stroke-width="1.5"/>
  <text x="60" y="84" font-size="14" font-weight="bold" fill="#33425a">ACCÈS</text>
  <rect x="60" y="95" width="150" height="44" rx="8" fill="#fff" stroke="#33425a" stroke-width="1.5"/>
  <text x="135" y="113" text-anchor="middle" font-size="12" font-weight="bold" fill="#111">MacBook (toi)</text>
  <text x="135" y="129" text-anchor="middle" font-size="11" fill="#555">Tailscale · VS Code SSH</text>
  <rect x="230" y="95" width="150" height="44" rx="8" fill="#fff" stroke="#a11d20" stroke-width="1.5"/>
  <text x="305" y="113" text-anchor="middle" font-size="12" font-weight="bold" fill="#111">Navigateur (jury)</text>
  <text x="305" y="129" text-anchor="middle" font-size="11" fill="#555">HTTP → Grafana</text>

  <!-- NAT -->
  <rect x="430" y="78" width="120" height="54" rx="8" fill="#fde7e9" stroke="#a11d20" stroke-width="1.5"/>
  <text x="490" y="100" text-anchor="middle" font-size="13" font-weight="bold" fill="#a11d20">NAT (DNAT)</text>
  <text x="490" y="118" text-anchor="middle" font-size="11" fill="#a11d20">:3000 + sites LXC</text>

  <!-- PROXMOX outer -->
  <rect x="40" y="180" width="1160" height="690" rx="14" fill="#f6f8fa" stroke="#57606a" stroke-width="2"/>
  <text x="62" y="208" font-size="16" font-weight="bold" fill="#33425a">Hyperviseur Proxmox — pvepierre · 10.202.8.101</text>

  <!-- VM220 prod -->
  <rect x="900" y="230" width="280" height="120" rx="10" fill="#eceff1" stroke="#90a4ae" stroke-width="1.5" stroke-dasharray="5 4"/>
  <text x="1040" y="256" text-anchor="middle" font-size="14" font-weight="bold" fill="#607d8b">VM220 — leaf-spine-lab1</text>
  <text x="1040" y="276" text-anchor="middle" font-size="12" fill="#607d8b">10.202.8.220</text>
  <text x="1040" y="300" text-anchor="middle" font-size="13" font-weight="bold" fill="#455a64">PRODUCTION</text>
  <text x="1040" y="318" text-anchor="middle" font-size="11" fill="#78909c">(réservée — lab migré ailleurs)</text>

  <!-- VM221 lab -->
  <rect x="62" y="230" width="810" height="620" rx="12" fill="#ffffff" stroke="#1f6feb" stroke-width="2"/>
  <text x="82" y="256" font-size="15" font-weight="bold" fill="#0b3d91">VM221 — leaf-spine-lab2 · 10.202.8.221 · LAB (8 vCPU / 16 Go, Debian 12)</text>

  <!-- Fabric zone -->
  <rect x="82" y="272" width="770" height="320" rx="10" fill="#f3f8ff" stroke="#1f6feb" stroke-width="1.5"/>
  <text x="100" y="294" font-size="13" font-weight="bold" fill="#0b3d91">FABRIC LEAF-SPINE — containerlab / FRR (4 topos : eBGP · iBGP-RR · OSPF · mixed)</text>

  <!-- spines -->
  <rect x="300" y="312" width="120" height="48" rx="8" fill="#1f6feb" stroke="#0b3d91"/>
  <text x="360" y="333" text-anchor="middle" font-size="13" font-weight="bold" fill="#fff">spine1</text>
  <text x="360" y="350" text-anchor="middle" font-size="10" fill="#dbe7ff">10.255.0.1</text>
  <rect x="500" y="312" width="120" height="48" rx="8" fill="#1f6feb" stroke="#0b3d91"/>
  <text x="560" y="333" text-anchor="middle" font-size="13" font-weight="bold" fill="#fff">spine2</text>
  <text x="560" y="350" text-anchor="middle" font-size="10" fill="#dbe7ff">10.255.0.2</text>

  <!-- leaves -->
  <rect x="170" y="420" width="120" height="48" rx="8" fill="#2ea043" stroke="#176a2c"/>
  <text x="230" y="441" text-anchor="middle" font-size="13" font-weight="bold" fill="#fff">leaf1</text>
  <text x="230" y="458" text-anchor="middle" font-size="10" fill="#d9f5e1">10.255.0.11</text>
  <rect x="400" y="420" width="120" height="48" rx="8" fill="#2ea043" stroke="#176a2c"/>
  <text x="460" y="441" text-anchor="middle" font-size="13" font-weight="bold" fill="#fff">leaf2</text>
  <text x="460" y="458" text-anchor="middle" font-size="10" fill="#d9f5e1">10.255.0.12</text>
  <rect x="630" y="420" width="120" height="48" rx="8" fill="#2ea043" stroke="#176a2c"/>
  <text x="690" y="441" text-anchor="middle" font-size="13" font-weight="bold" fill="#fff">leaf3</text>
  <text x="690" y="458" text-anchor="middle" font-size="10" fill="#d9f5e1">10.255.0.13</text>

  <!-- hosts -->
  <rect x="170" y="525" width="120" height="44" rx="22" fill="#d29922" stroke="#9a6a00"/>
  <text x="230" y="544" text-anchor="middle" font-size="12" font-weight="bold" fill="#111">host1</text>
  <text x="230" y="560" text-anchor="middle" font-size="10" fill="#3d2c00">192.168.1.2</text>
  <rect x="400" y="525" width="120" height="44" rx="22" fill="#d29922" stroke="#9a6a00"/>
  <text x="460" y="544" text-anchor="middle" font-size="12" font-weight="bold" fill="#111">host2</text>
  <text x="460" y="560" text-anchor="middle" font-size="10" fill="#3d2c00">192.168.2.2</text>
  <rect x="630" y="525" width="120" height="44" rx="22" fill="#d29922" stroke="#9a6a00"/>
  <text x="690" y="544" text-anchor="middle" font-size="12" font-weight="bold" fill="#111">host3</text>
  <text x="690" y="560" text-anchor="middle" font-size="10" fill="#3d2c00">192.168.3.2</text>

  <!-- fabric links (underlay /31, full mesh) -->
  <g stroke="#2ea043" stroke-width="2.5" opacity="0.8">
    <line x1="360" y1="360" x2="230" y2="420"/>
    <line x1="360" y1="360" x2="460" y2="420"/>
    <line x1="360" y1="360" x2="690" y2="420"/>
    <line x1="560" y1="360" x2="230" y2="420"/>
    <line x1="560" y1="360" x2="460" y2="420"/>
    <line x1="560" y1="360" x2="690" y2="420"/>
  </g>
  <g stroke="#9a6a00" stroke-width="2.5" opacity="0.8">
    <line x1="230" y1="468" x2="230" y2="525"/>
    <line x1="460" y1="468" x2="460" y2="525"/>
    <line x1="690" y1="468" x2="690" y2="525"/>
  </g>
  <text x="770" y="392" font-size="11" fill="#176a2c" font-weight="bold">underlay /31</text>
  <text x="770" y="500" font-size="11" fill="#9a6a00" font-weight="bold">accès host</text>

  <!-- Observabilite zone -->
  <rect x="82" y="606" width="770" height="226" rx="10" fill="#faf6ff" stroke="#8957e5" stroke-width="1.5"/>
  <text x="100" y="628" font-size="13" font-weight="bold" fill="#5a32a3">OBSERVABILITÉ — docker compose</text>

  <rect x="120" y="648" width="200" height="120" rx="8" fill="#8957e5" stroke="#5a32a3"/>
  <text x="220" y="690" text-anchor="middle" font-size="13" font-weight="bold" fill="#fff">clab_exporter.py</text>
  <text x="220" y="710" text-anchor="middle" font-size="11" fill="#ece3ff">:9101 (maison)</text>
  <text x="220" y="730" text-anchor="middle" font-size="10" fill="#ece3ff">nsenter → /proc/net/dev</text>
  <text x="220" y="746" text-anchor="middle" font-size="10" fill="#ece3ff">+ lecture JSON benchmark</text>

  <rect x="400" y="660" width="180" height="96" rx="8" fill="#e85d04" stroke="#9d3a00"/>
  <text x="490" y="700" text-anchor="middle" font-size="13" font-weight="bold" fill="#fff">Prometheus</text>
  <text x="490" y="720" text-anchor="middle" font-size="11" fill="#ffe6d5">:9090</text>
  <text x="490" y="738" text-anchor="middle" font-size="10" fill="#ffe6d5">scrape 2s · stockage</text>

  <rect x="650" y="660" width="180" height="96" rx="8" fill="#f23f42" stroke="#a11d20"/>
  <text x="740" y="700" text-anchor="middle" font-size="13" font-weight="bold" fill="#fff">Grafana</text>
  <text x="740" y="720" text-anchor="middle" font-size="11" fill="#ffe1e1">:3000</text>
  <text x="740" y="738" text-anchor="middle" font-size="10" fill="#ffe1e1">dashboard (PromQL)</text>

  <!-- metric flow -->
  <line x1="320" y1="708" x2="400" y2="708" stroke="#8957e5" stroke-width="2.5" marker-end="url(#arrp)"/>
  <line x1="580" y1="708" x2="650" y2="708" stroke="#8957e5" stroke-width="2.5" marker-end="url(#arrp)"/>
  <!-- fabric -> exporter (dashed) -->
  <path d="M 230 569 C 150 600, 150 630, 200 648" fill="none" stroke="#8957e5" stroke-width="2" stroke-dasharray="6 4" marker-end="url(#arrp)"/>
  <text x="92" y="624" font-size="10" fill="#5a32a3" font-weight="bold">RX/TX live</text>

  <!-- access arrows -->
  <line x1="135" y1="139" x2="135" y2="230" stroke="#33425a" stroke-width="2" marker-end="url(#arr)"/>
  <text x="142" y="200" font-size="11" fill="#33425a">SSH / VS Code</text>
  <line x1="490" y1="132" x2="600" y2="230" stroke="#a11d20" stroke-width="2" marker-end="url(#arr)"/>
  <path d="M 305 139 C 350 160, 410 160, 460 95" fill="none" stroke="#a11d20" stroke-width="1.8" marker-end="url(#arr)"/>
  <!-- NAT to grafana (route along right gap, hors fabric) -->
  <path d="M 540 105 C 888 120, 888 560, 832 700" fill="none" stroke="#a11d20" stroke-width="1.8" stroke-dasharray="5 4" marker-end="url(#arr)"/>
  <text x="892" y="600" font-size="11" fill="#a11d20" font-weight="bold" transform="rotate(90 892 600)">NAT → Grafana :3000</text>

  <!-- legend -->
  <rect x="900" y="380" width="280" height="180" rx="10" fill="#ffffff" stroke="#9aa7b4" stroke-width="1.2"/>
  <text x="918" y="404" font-size="13" font-weight="bold" fill="#33425a">Légende</text>
  <rect x="918" y="416" width="20" height="14" rx="3" fill="#1f6feb"/><text x="946" y="428" font-size="12" fill="#111">spine (coeur)</text>
  <rect x="918" y="438" width="20" height="14" rx="3" fill="#2ea043"/><text x="946" y="450" font-size="12" fill="#111">leaf (accès)</text>
  <rect x="918" y="460" width="20" height="14" rx="7" fill="#d29922"/><text x="946" y="472" font-size="12" fill="#111">host (iperf3)</text>
  <rect x="918" y="482" width="20" height="14" rx="3" fill="#8957e5"/><text x="946" y="494" font-size="12" fill="#111">exporter maison</text>
  <line x1="918" y1="512" x2="940" y2="512" stroke="#8957e5" stroke-width="2.5" stroke-dasharray="6 4"/><text x="946" y="516" font-size="12" fill="#111">flux métriques</text>
  <line x1="918" y1="534" x2="940" y2="534" stroke="#2ea043" stroke-width="2.5"/><text x="946" y="538" font-size="12" fill="#111">liens underlay /31</text>
</svg>
